<svg width="525" height="512" viewBox="0 0 525 512" fill="none" xmlns="http://www.w3.org/2000/svg">
    <path d="M270.769 364.308C270.769 347.077 278.154 344.615 295.385 354.462C324.923 371.692 354.462 386.462 354.462 386.462C354.462 376.615 364.308 369.231 381.538 374.154C398.769 379.077 416 381.538 416 381.538C416 381.538 406.154 359.385 401.231 349.538C393.846 332.308 401.231 322.462 408.615 320C408.615 320 398.769 312.615 391.385 307.692C376.615 297.846 379.077 285.538 393.846 280.615C413.538 270.769 440.615 260.923 440.615 260.923C433.231 256 423.385 243.692 433.231 226.462C443.077 211.692 460.308 189.538 460.308 189.538C460.308 189.538 433.231 189.538 413.538 189.538C396.308 189.538 391.385 174.769 391.385 164.923C391.385 164.923 364.308 184.615 344.615 196.923C327.385 209.231 312.615 196.923 315.077 177.231C320 147.692 322.462 113.231 322.462 113.231C312.615 123.077 295.385 120.615 285.538 105.846C273.231 81.2308 260.923 51.6923 260.923 51.6923C260.923 51.6923 248.615 81.2308 236.308 105.846C228.923 120.615 211.692 123.077 201.846 115.692C201.846 115.692 204.308 150.154 209.231 179.692C211.692 196.923 196.923 209.231 179.692 196.923C160 184.615 130.462 164.923 130.462 164.923C130.462 174.769 125.538 187.077 108.308 189.538C88.6154 189.538 61.5385 189.538 61.5385 189.538C61.5385 189.538 78.7692 211.692 88.6154 226.462C98.4615 241.231 88.6154 256 81.2308 260.923C81.2308 260.923 105.846 273.231 128 280.615C142.769 288 147.692 297.846 130.462 307.692C125.538 312.615 113.231 320 113.231 320C123.077 322.462 130.462 332.308 123.077 349.538C118.154 359.385 108.308 381.538 108.308 381.538C108.308 381.538 125.538 376.615 142.769 374.154C160 369.231 167.385 379.077 169.846 386.462C169.846 386.462 199.385 369.231 228.923 354.462C243.692 344.615 253.538 349.538 253.538 364.308V406.154C253.538 430.769 248.615 455.385 241.231 470.154C130.462 457.846 36.9231 369.231 36.9231 251.077C36.9231 130.462 137.846 32 263.385 32C388.923 32 489.846 130.462 489.846 251.077C489.846 364.308 401.231 457.846 288 470.154V499.692C420.923 487.385 524.308 381.538 524.308 251.077C524.308 110.769 406.154 0 260.923 0C118.154 0 0 110.769 0 248.615C0 369.231 91.0769 470.154 211.692 492.308C231.385 497.231 243.692 499.692 256 512C268.308 487.385 270.769 438.154 270.769 411.077V364.308Z" fill="#F01428"/>
</svg>
