<svg width="732" height="512" viewBox="0 0 732 512" fill="none" xmlns="http://www.w3.org/2000/svg">
    <path fill-rule="evenodd" clip-rule="evenodd" d="M73.1429 0H658.286C698.514 0 731.429 32.9143 731.429 73.1429V438.126C731.429 479.086 698.514 512 658.286 512H73.1429C32.9143 512 0 479.086 0 438.857V73.1429C0 32.9143 32.9143 0 73.1429 0ZM658.286 459.337C669.989 458.606 678.766 449.097 678.034 438.126V72.4115C678.034 61.4401 669.257 51.9315 658.286 51.9315H72.4114C61.44 52.6629 52.6628 62.1714 53.3943 73.1429V438.857C53.3943 449.829 62.1714 459.337 73.1429 459.337H658.286Z" fill="#F01414"/>
    <path d="M223.817 423.497H100.937V88.5029H223.817C310.857 88.5029 358.4 142.629 358.4 254.537C358.4 351.086 325.486 422.766 223.817 423.497ZM277.211 261.12C277.211 193.829 269.897 141.166 197.486 141.166H181.394V369.371H209.92C252.343 369.371 277.211 334.994 277.211 261.12ZM570.514 247.954C604.891 237.714 628.297 206.263 629.029 169.691C629.029 162.377 627.566 87.7714 533.211 87.7714H393.509V422.766H512C543.451 422.766 641.463 422.766 641.463 328.411C641.463 305.737 631.223 261.12 570.514 247.954ZM473.234 140.434H498.834C534.674 140.434 549.303 152.869 549.303 180.663C549.303 202.606 533.211 220.891 505.417 220.891H473.966V140.434H473.234ZM506.149 369.371H473.234V283.063H508.343C550.034 283.063 560.274 307.2 560.274 326.217C560.274 369.371 519.314 369.371 506.149 369.371Z" fill="#F01414"/>
</svg>
