<svg width="503" height="512" viewBox="0 0 503 512" fill="none" xmlns="http://www.w3.org/2000/svg">
    <path d="M213.599 1.9878C175.09 7.54581 128.442 28.1899 96.0864 53.7964C-2.96541 132.204 -29.366 277.904 35.3452 388.468C72.2663 451.592 136.779 496.254 209.43 508.958C234.838 513.325 282.677 512.928 307.291 508.164C381.729 493.674 440.485 449.408 476.413 380.727C489.515 355.914 501.028 320.978 502.814 301.525C503.211 295.57 502.814 294.578 499.44 295.173C493.088 296.364 491.301 299.342 483.957 321.772C475.223 347.974 466.488 365.442 451.799 385.888C415.871 436.307 363.665 470.251 304.512 481.367C277.714 486.329 228.089 484.344 202.681 477.198C126.854 456.157 66.5098 398.195 43.2852 324.353C35.3452 298.945 33.3602 281.477 34.5512 247.533C35.9407 203.664 45.6672 171.507 68.0978 135.182C80.6033 115.133 114.15 79.8 133.007 67.2945C211.614 14.8903 309.474 13.8978 387.882 65.111C416.863 84.167 448.425 118.706 464.702 149.474C468.076 155.826 470.458 161.582 470.061 161.781C469.466 162.575 363.467 201.282 305.306 222.323L283.868 230.065L282.081 225.499C281.089 223.117 277.516 189.769 274.141 151.657C270.767 113.347 267.591 80.594 266.995 78.609C266.4 76.8225 264.216 75.2345 262.231 75.2345C258.063 75.2345 257.864 76.227 253.299 126.845C245.756 207.634 243.771 227.087 242.58 228.477C241.786 229.271 211.018 221.529 173.899 211.207C114.745 194.732 106.011 192.747 103.431 195.327C101.644 197.114 101.247 198.9 102.438 200.091C103.629 201.084 128.839 214.185 158.614 229.072C188.191 243.96 212.606 257.061 212.606 258.054C212.606 259.046 187.992 272.147 158.019 287.035C119.509 306.289 103.431 315.42 103.431 317.604C103.431 319.39 104.622 321.375 106.011 321.971C107.202 322.368 136.978 315.023 171.914 305.297C206.85 295.57 237.419 287.63 239.602 287.63C243.374 287.63 243.969 289.02 245.16 302.915C246.55 319.787 250.718 362.862 255.284 409.311C256.872 425.39 258.261 439.086 258.261 439.682C258.261 440.277 260.246 440.476 262.628 440.079C266.995 439.483 267.194 438.094 274.538 364.053C278.508 322.566 281.883 288.424 281.883 288.027C282.677 285.645 288.433 287.035 386.691 314.626C404.358 319.589 419.841 323.162 421.032 322.368C426.788 318.795 418.253 313.038 368.429 287.63C339.051 272.544 314.834 259.046 314.834 257.855C314.834 256.664 352.946 237.012 399.594 214.383C446.241 191.754 485.743 172.103 487.133 170.713C489.713 168.728 489.713 167.14 487.53 159.994C482.567 143.122 472.245 121.684 461.724 106.002C426.193 52.407 369.223 15.2873 303.916 2.9803C286.051 -0.592712 234.243 -0.989713 213.599 1.9878Z" fill="#116BFE"/>
</svg>
