<svg width="1023" height="512" viewBox="0 0 1023 512" fill="none" xmlns="http://www.w3.org/2000/svg">
    <path fill-rule="evenodd" clip-rule="evenodd" d="M225.503 253.136C196.261 424.866 263.301 510.382 415.722 511.987C469.758 512.551 530.823 493.873 538.128 489.541L552.161 413.358C518.151 425.411 487.823 435.026 447.262 434.266C396.039 433.304 344.545 419.774 343.203 327.879C341.273 196.421 390.805 86.7796 510.405 84.5552C551.346 83.7892 570.741 90.9773 607.754 105.605L622.523 25.4448C591.956 12.7108 568.014 1.34344 497.15 0.0504396C346.108 -2.70102 250.309 107.431 225.503 253.136ZM0 505.608L117.099 505.541L208.18 11.1114H89.4745L0 505.608ZM691.891 11.1114L597.447 505.608L941.667 505.571L956.344 425.889H728.604L749.255 301.093L917.768 301.124L933.015 218.347L766.45 218.237L791.44 96.5721L1006.32 96.5599L1022.06 11.1176L691.891 11.1114Z" fill="#B4B4B4"/>
</svg>
