<svg width="1312" height="512" viewBox="0 0 1312 512" fill="none" xmlns="http://www.w3.org/2000/svg">
    <path fill-rule="evenodd" clip-rule="evenodd" d="M573.133 246.049C547.163 220.704 511.554 204.907 472.554 204.907H196.25L298.436 102.454H558.408C569.385 102.632 579.648 107.451 586.877 114.68L737.79 266.04C763.761 291.297 799.28 307.182 838.548 307.182H1115.12L1012.76 409.636H753.051C741.896 409.279 731.811 404.549 724.493 397.052L573.133 246.049ZM652.115 469.698C677.818 495.668 713.516 512 753.051 512H1054.88L1311.1 256.045L1054.88 0H910.212L1115.12 204.907H838.548C827.66 204.907 817.487 200.534 810.347 193.573L659.255 42.4808C633.374 16.2427 597.765 0.0892911 558.408 0H256.135L0 256.045L256.135 512H400.89L196.25 307.182H472.554C483.531 307.182 493.437 311.555 500.755 318.695L652.115 469.698Z" fill="#000066"/>
</svg>
