<svg width="2540" height="512" viewBox="0 0 2540 512" fill="none" xmlns="http://www.w3.org/2000/svg">
    <path d="M1688.26 0.213174H2130.61V81.8606H1955.13V511.397H1867.39V81.8606H1688.26V0.213174Z" fill="white"/>
    <path d="M960.747 0.213174V81.8606H606.169V213.206H891.32V294.853H606.169V429.749H960.747V511.397H518.429V81.8606H518.392V0.213174H960.747Z" fill="white"/>
    <path d="M1181.63 0.426375H1066.8L1478.08 511.61H1593.24L1387.58 256.194L1592.91 0.816376L1478.08 0.993826L1330.09 184.797L1181.63 0.426375Z" fill="white"/>
    <path d="M1299.46 365.568L1241.95 294.072L1066.48 512H1181.63L1299.46 365.568Z" fill="white"/>
    <path fill-rule="evenodd" clip-rule="evenodd" d="M521.504 511.397L109.675 0H0V511.183H87.7397V109.265L411.28 511.397H521.504Z" fill="white"/>
    <path d="M2150.34 508.274C2143.91 508.274 2138.44 506.049 2133.87 501.597C2129.29 497.145 2127.03 491.755 2127.09 485.37C2127.03 479.16 2129.29 473.828 2133.87 469.376C2138.44 464.924 2143.91 462.698 2150.34 462.698C2156.52 462.698 2161.93 464.924 2166.5 469.376C2171.14 473.828 2173.46 479.16 2173.52 485.37C2173.46 489.587 2172.39 493.453 2170.25 496.909C2168.05 500.425 2165.26 503.178 2161.74 505.17C2158.3 507.22 2154.49 508.274 2150.34 508.274Z" fill="white"/>
    <path d="M2300.09 292.927H2338.97V442.721C2338.91 456.488 2335.93 468.263 2330.11 478.164C2324.23 488.064 2316.08 495.62 2305.62 500.951C2295.22 506.223 2283.03 508.919 2269.18 508.919C2256.51 508.919 2245.16 506.634 2235.05 502.182C2224.95 497.73 2216.92 491.051 2211.04 482.264C2205.09 473.477 2202.17 462.522 2202.17 449.4H2241.12C2241.18 455.141 2242.48 460.12 2244.98 464.279C2247.47 468.439 2250.92 471.601 2255.32 473.828C2259.78 476.054 2264.9 477.167 2270.66 477.167C2276.9 477.167 2282.25 475.878 2286.59 473.242C2290.93 470.664 2294.26 466.798 2296.58 461.643C2298.84 456.547 2300.03 450.22 2300.09 442.721V292.927Z" fill="white"/>
    <path d="M2498.95 351.509C2498 342.429 2493.83 335.341 2486.58 330.303C2479.27 325.206 2469.82 322.687 2458.22 322.687C2450.08 322.687 2443.07 323.918 2437.24 326.32C2431.41 328.78 2426.9 332.06 2423.8 336.22C2420.71 340.379 2419.17 345.124 2419.04 350.456C2419.04 354.908 2420.11 358.774 2422.2 361.996C2424.28 365.276 2427.07 368.03 2430.7 370.256C2434.26 372.54 2438.25 374.415 2442.59 375.938C2446.99 377.461 2451.39 378.75 2455.79 379.805L2476.06 384.784C2484.2 386.659 2492.11 389.178 2499.66 392.4C2507.21 395.563 2514.05 399.605 2520.05 404.467C2526.06 409.33 2530.81 415.188 2534.32 422.042C2537.83 428.896 2539.61 436.922 2539.61 446.178C2539.61 458.655 2536.4 469.61 2529.92 479.1C2523.44 488.532 2514.11 495.913 2501.86 501.245C2489.67 506.517 2474.93 509.212 2457.57 509.212C2440.81 509.212 2426.18 506.635 2413.88 501.479C2401.51 496.383 2391.88 488.884 2384.92 479.042C2377.97 469.2 2374.22 457.191 2373.69 443.073H2412.21C2412.75 450.454 2415.13 456.605 2419.17 461.585C2423.27 466.505 2428.62 470.138 2435.16 472.598C2441.76 475 2449.13 476.23 2457.27 476.23C2465.78 476.23 2473.27 474.941 2479.74 472.422C2486.16 469.903 2491.22 466.389 2494.85 461.819C2498.53 457.308 2500.38 451.977 2500.44 445.885C2500.38 440.32 2498.71 435.691 2495.5 432.059C2492.23 428.427 2487.71 425.381 2481.94 422.921C2476.12 420.461 2469.34 418.234 2461.61 416.301L2437 410.091C2419.23 405.581 2405.14 398.727 2394.85 389.529C2384.51 380.332 2379.39 368.147 2379.39 352.857C2379.39 340.321 2382.84 329.308 2389.8 319.876C2396.69 310.444 2406.15 303.121 2418.1 297.907C2430.11 292.635 2443.66 290.057 2458.76 290.057C2474.1 290.057 2487.53 292.635 2499.13 297.907C2510.72 303.121 2519.82 310.386 2526.41 319.641C2533.01 328.897 2536.46 339.5 2536.64 351.509H2498.95Z" fill="white"/>
</svg>
