<svg width="2272" height="512" viewBox="0 0 2272 512" fill="none" xmlns="http://www.w3.org/2000/svg">
    <path d="M1138.56 128C1050.24 128 986.557 185.6 986.557 272C986.557 358.4 1058.16 416 1146.56 416C1199.92 416 1246.96 394.88 1276.08 359.28L1214.88 323.92C1198.72 341.6 1174.16 351.92 1146.56 351.92C1108.24 351.92 1075.68 331.92 1063.6 299.92H1287.76C1289.52 290.96 1290.56 281.68 1290.56 271.92C1290.56 185.6 1226.96 128 1138.56 128ZM1062.96 244C1072.96 212.08 1100.32 192 1138.56 192C1176.88 192 1204.24 212.08 1214.16 244H1062.96ZM1044.88 40L823.199 424L601.441 40H684.559L823.122 280L961.679 40H1044.88ZM295.6 0L591.201 512H0L295.6 0ZM1612.16 272C1612.16 320 1643.52 352 1692.16 352C1725.12 352 1749.84 337.04 1762.56 312.64L1824 348.08C1798.56 390.48 1750.88 416 1692.16 416C1603.76 416 1540.16 358.4 1540.16 272C1540.16 185.6 1603.84 128 1692.16 128C1750.88 128 1798.48 153.52 1824 195.92L1762.56 231.36C1749.84 206.96 1725.12 192 1692.16 192C1643.6 192 1612.16 224 1612.16 272ZM2272 40V408H2200V40H2272ZM2000 128C1911.68 128 1848 185.6 1848 272C1848 358.4 1919.68 416 2008 416C2061.36 416 2108.4 394.88 2137.52 359.28L2076.32 323.92C2060.16 341.6 2035.6 351.92 2008 351.92C1969.68 351.92 1937.12 331.92 1925.04 299.92H2149.2C2150.96 290.96 2152 281.68 2152 271.92C2152 185.6 2088.4 128 2000 128ZM1924.4 244C1934.4 212.08 1961.68 192 2000 192C2038.32 192 2065.68 212.08 2075.6 244H1924.4ZM1516.16 136V213.52C1508.16 211.2 1499.68 209.6 1490.56 209.6C1444.08 209.6 1410.56 241.6 1410.56 289.6V408H1338.56V136H1410.56V209.6C1410.56 168.96 1457.84 136 1516.16 136Z" fill="white"/>
</svg>
